# xmcd
#
# Track frame offsets:
#	150
#	17190
#	33433
#	48896
#	63563
#	77036
#	90711
#	106042
#	121622
#
# Disc length: 1833 seconds
# Revision: 0
# Processed by: cddbd v1.5.2PL0 Copyright (c) Steve Scherf et al.
# Submitted via: dBpowerAMP V12.0
#
DISCID=64072709
DTITLE=The Black Keys - El Camino (Australian and New Zealand Tour Edition) CD2
DYEAR=2012
DGENRE=Blues
TTITLE0=Dead and Gone
TTITLE1=Gold On The Ceiling
TTITLE2=Howlin' For You
TTITLE3=Lonely Boy
TTITLE4=Money Maker
TTITLE5=Next Girl
TTITLE6=Run Right Back
TTITLE7=Sister
TTITLE8=Tighten Up
EXTD=
EXTT0=
EXTT1=
EXTT2=
EXTT3=
EXTT4=
EXTT5=
EXTT6=
EXTT7=
EXTT8=
PLAYORDER=
